<?xml version="1.0" standalone="no"?>
<!DOCTYPE svg PUBLIC "-//W3C//DTD SVG 20010904//EN"
 "http://www.w3.org/TR/2001/REC-SVG-20010904/DTD/svg10.dtd">
<svg version="1.0" xmlns="http://www.w3.org/2000/svg"
 width="96.000000pt" height="96.000000pt" viewBox="0 0 96.000000 96.000000"
 preserveAspectRatio="xMidYMid meet">

<g transform="translate(0.000000,96.000000) scale(0.100000,-0.100000)"
fill="#000000" stroke="none">
<path d="M437 642 c-81 -82 -147 -155 -147 -162 0 -7 66 -80 147 -162 118
-119 153 -148 175 -148 25 0 58 30 58 54 0 5 -55 65 -122 133 l-122 123 122
123 c67 68 122 128 122 133 0 24 -33 54 -58 54 -22 0 -57 -29 -175 -148z"/>
</g>
</svg>
