<?xml version="1.0" encoding="UTF-8" standalone="no"?>
<!-- Created with Inkscape (http://www.inkscape.org/) -->

<svg
   version="1.1"
   id="svg18"
   width="667.20001"
   height="667.20001"
   viewBox="0 0 667.20001 667.20001"
   sodipodi:docname="bee.svg"
   inkscape:version="1.2.2 (732a01da63, 2022-12-09, custom)"
   xmlns:inkscape="http://www.inkscape.org/namespaces/inkscape"
   xmlns:sodipodi="http://sodipodi.sourceforge.net/DTD/sodipodi-0.dtd"
   xmlns="http://www.w3.org/2000/svg"
   xmlns:svg="http://www.w3.org/2000/svg">
  <defs
     id="defs22">
    <clipPath
       clipPathUnits="userSpaceOnUse"
       id="clipPath36">
      <path
         d="M 5004,0 H 0 V 5004 H 5004 V 0 M 3330.45,4326.57 c -251.36,-47.15 -225.47,-299.68 -354.79,-398.29 -135.19,-103.08 -158.04,-226.43 -110.36,-300.7 44.71,-69.67 129.64,-94.31 223.82,-94.31 110.63,0 234,34.03 319.76,69.08 157.79,64.5 308.46,287.52 334.19,460.05 23.23,155.79 -66.14,273.47 -297.2,273.47 -10.14,0 -20.58,-0.23 -31.26,-0.69 -1.06,23.42 -5,47.09 -12.27,70.83 -17.29,56.42 -38.58,102.88 -63.03,139.91 11.56,-48.63 15.05,-99.19 8.12,-148.09 -3.41,-24.03 -9.25,-47.95 -16.98,-71.26"
         id="path34" />
    </clipPath>
    <clipPath
       clipPathUnits="userSpaceOnUse"
       id="clipPath102">
      <path
         d="m 3434.52,3443.03 20.53,-167.64 c 1.27,-10.41 7.94,-19.46 17.61,-23.51 18.51,-7.76 51.84,-18.85 91.24,-18.85 39.4,0 72.73,11.09 91.24,18.85 9.67,4.05 16.34,13.1 17.61,23.51 l 20.52,167.64 h -258.75"
         id="path100" />
    </clipPath>
    <clipPath
       clipPathUnits="userSpaceOnUse"
       id="clipPath118">
      <path
         d="m 3703.9,3498.55 c 0,-21.3 -62.68,-38.56 -140,-38.56 -77.32,0 -140,17.26 -140,38.56 0,21.3 62.68,38.57 140,38.57 77.32,0 140,-17.27 140,-38.57"
         id="path116" />
    </clipPath>
    <clipPath
       clipPathUnits="userSpaceOnUse"
       id="clipPath138">
      <path
         d="m 2865.3,3627.58 c -47.68,74.27 -24.83,197.62 110.36,300.7 135.18,103.08 100.74,374.36 390.74,403.41 290,29.04 402.39,-96.76 376.67,-269.29 -25.73,-172.53 -176.4,-395.55 -334.19,-460.05 -158.77,-64.89 -446.35,-126.27 -543.58,25.23"
         id="path136" />
    </clipPath>
    <clipPath
       clipPathUnits="userSpaceOnUse"
       id="clipPath210">
      <path
         d="m 3340.64,3867.24 c -137.75,34.21 -206,137.68 -225.45,294.56 -21.99,-40.91 -39.24,-84.15 -58.72,-123.91 27.31,-144.88 108.51,-240.68 239.89,-273.31 111.48,-27.69 232.49,-19.78 319.11,13.53 26.72,35.93 50.58,74.58 70.36,113.93 -87.18,-42.57 -222.03,-55.39 -345.19,-24.8"
         id="path208" />
    </clipPath>
    <clipPath
       clipPathUnits="userSpaceOnUse"
       id="clipPath222">
      <path
         d="m 3120.95,3700.47 c -69.71,41.31 -122.06,131.08 -118.15,253.17 -8.29,-9.22 -17.22,-17.79 -27.14,-25.36 -19.84,-15.12 -37.19,-30.69 -52.33,-46.47 -0.66,-123.41 66.47,-225.42 138.33,-263.85 66.36,-35.48 167.4,-53.44 264.28,-45.06 29.99,9.2 58.05,19.29 82.94,29.45 34.64,14.16 68.93,35.96 101.62,63.17 -117.93,-65.26 -327.98,-1.54 -389.55,34.95"
         id="path220" />
    </clipPath>
  </defs>
  <sodipodi:namedview
     id="namedview20"
     pagecolor="#505050"
     bordercolor="#eeeeee"
     borderopacity="1"
     inkscape:showpageshadow="0"
     inkscape:pageopacity="0"
     inkscape:pagecheckerboard="0"
     inkscape:deskcolor="#505050"
     showgrid="false"
     inkscape:zoom="1.1810551"
     inkscape:cx="228.60915"
     inkscape:cy="341.22032"
     inkscape:window-width="1920"
     inkscape:window-height="941"
     inkscape:window-x="0"
     inkscape:window-y="0"
     inkscape:window-maximized="1"
     inkscape:current-layer="g26">
    <inkscape:page
       x="0"
       y="0"
       id="page24"
       width="667.20001"
       height="667.20001" />
  </sodipodi:namedview>
  <g
     id="g26"
     inkscape:groupmode="layer"
     inkscape:label="Page 1"
     transform="matrix(1.3333333,0,0,-1.3333333,0,667.2)">
    <g
       id="g642"
       transform="translate(-107.30937,-139.06808)">
      <path
         d="m 313.731,442.18 c -2.461,1.708 -5.019,3.489 -7.721,4.934 -0.051,9.902 1.193,17.408 5.436,18.245 3.617,0.714 7.109,0.521 10.389,-0.609 2.835,-9.411 3.5,-19.407 2.638,-29.283 -0.113,-1.296 -0.259,-2.589 -0.417,-3.881 -2.708,4.354 -6.035,7.618 -10.325,10.594"
         style="fill:#ffffff;fill-opacity:1;fill-rule:nonzero;stroke:none;stroke-width:0.1"
         id="path54" />
      <path
         d="m 307.412,424.544 c -0.674,7.324 -1.297,14.883 -1.391,21.48 2.265,-1.26 4.427,-2.742 6.525,-4.17 4.769,-3.246 8.412,-6.725 11.307,-11.734 l 0.017,-0.019 c -0.483,-3.553 -1.133,-7.089 -1.879,-10.6 -4.153,2.861 -9.402,4.801 -14.579,5.043"
         style="fill:#ffffff;fill-opacity:1;fill-rule:nonzero;stroke:none;stroke-width:0.1"
         id="path56" />
      <path
         d="m 313.025,411.201 c -1.459,0.204 -2.932,0.213 -4.404,0.167 -0.322,3.826 -0.726,7.98 -1.123,12.24 5.09,-0.265 10.256,-2.262 14.282,-5.103 -0.387,-1.773 -0.79,-3.541 -1.224,-5.298 -0.36,-1.459 -0.732,-2.929 -1.116,-4.401 -2.119,1.015 -4.021,2.06 -6.415,2.395"
         style="fill:#ffffff;fill-opacity:1;fill-rule:nonzero;stroke:none;stroke-width:0.1"
         id="path58" />
      <path
         d="m 308.827,394.496 c 0.707,2.988 0.453,8.833 -0.127,15.933 1.067,0.032 2.134,0.033 3.199,-0.054 2.754,-0.225 4.883,-1.359 7.3,-2.497 -1.482,-5.559 -3.242,-11.117 -5.841,-16.186 -0.097,-0.188 -0.055,-0.365 0.046,-0.496 -2.748,-2.366 -6.411,-4.453 -4.577,3.3"
         style="fill:#ffffff;fill-opacity:1;fill-rule:nonzero;stroke:none;stroke-width:0.1"
         id="path60" />
      <path
         d="m 333.865,440.321 c -0.582,-4.54 -2.093,-9.092 -4.096,-13.192 -1.844,-3.774 -4.291,-8.252 -7.563,-11.064 1.475,6.386 2.639,12.875 3.209,19.398 0.85,9.725 0.222,19.568 -2.466,28.864 3.435,-1.433 6.614,-3.952 9.436,-7.59 1.58,-5.327 2.18,-10.969 1.48,-16.416"
         style="fill:#ffffff;fill-opacity:1;fill-rule:nonzero;stroke:none;stroke-width:0.1"
         id="path62" />
      <path
         d="m 321.302,412.306 c 0.055,0.22 0.111,0.441 0.165,0.66 0.134,0.54 0.261,1.082 0.39,1.626 l 0.012,0.004 c 3.766,2.792 6.495,7.594 8.553,11.727 2.092,4.197 3.661,8.81 4.321,13.46 0.693,4.89 0.344,9.946 -0.812,14.809 2.445,-3.703 4.574,-8.349 6.303,-13.991 3.199,-10.441 -0.055,-20.744 -5.869,-29.346 -4.152,1.655 -8.76,2.166 -13.063,1.051"
         style="fill:#ffffff;fill-opacity:1;fill-rule:nonzero;stroke:none;stroke-width:0.1"
         id="path64" />
      <path
         d="m 320.115,407.695 c 0.318,1.191 0.629,2.383 0.926,3.57 4.177,1.21 8.703,0.783 12.78,-0.797 -1.666,-2.372 -3.533,-4.592 -5.494,-6.659 -2.369,2.038 -5.143,3.584 -8.212,3.886"
         style="fill:#ffffff;fill-opacity:1;fill-rule:nonzero;stroke:none;stroke-width:0.1"
         id="path66" />
      <path
         d="m 318.875,403.321 c 0.347,1.147 0.678,2.299 0.994,3.453 2.922,-0.229 5.56,-1.706 7.819,-3.649 -1.57,-1.606 -3.202,-3.094 -4.852,-4.464 -1.051,1.781 -2.341,3.419 -3.961,4.66"
         style="fill:#ffffff;fill-opacity:1;fill-rule:nonzero;stroke:none;stroke-width:0.1"
         id="path68" />
      <path
         d="m 318.574,402.346 c 1.421,-1.179 2.584,-2.669 3.533,-4.287 -2.027,-1.632 -4.071,-3.075 -6.058,-4.29 0,0 -0.519,-0.575 -1.286,-1.322 1.525,3.172 2.751,6.508 3.811,9.899"
         style="fill:#ffffff;fill-opacity:1;fill-rule:nonzero;stroke:none;stroke-width:0.1"
         id="path70" />
      <path
         d="m 279.007,441.13 c 1.349,2.878 2.747,5.874 4.457,8.637 -5.224,9.113 -10.361,15.337 -14.699,13.848 -3.699,-1.27 -6.801,-3.306 -9.209,-6.091 2.409,-10.144 7.12,-19.67 13.169,-28.272 0.794,-1.128 1.615,-2.236 2.448,-3.338 0.167,5.436 1.482,10.202 3.834,15.216"
         style="fill:#ffffff;fill-opacity:1;fill-rule:nonzero;stroke:none;stroke-width:0.1"
         id="path72" />
      <path
         d="m 294.193,428.313 c -3.28,7.078 -6.732,14.346 -10.158,20.45 -1.408,-2.362 -2.602,-4.874 -3.768,-7.301 -2.647,-5.516 -4.138,-10.649 -4.127,-16.785 l -0.005,-0.026 c 2.334,-3.005 4.813,-5.902 7.366,-8.726 2.287,4.836 6.071,9.411 10.692,12.388"
         style="fill:#ffffff;fill-opacity:1;fill-rule:nonzero;stroke:none;stroke-width:0.1"
         id="path74" />
      <path
         d="m 296.146,413.083 c 1.23,0.963 2.576,1.756 3.952,2.497 -1.741,3.682 -3.582,7.709 -5.486,11.828 -4.529,-2.953 -8.205,-7.535 -10.388,-12.284 1.3,-1.421 2.611,-2.828 3.944,-4.21 1.107,-1.147 2.231,-2.298 3.368,-3.443 1.403,2.058 2.591,4.03 4.61,5.612"
         style="fill:#ffffff;fill-opacity:1;fill-rule:nonzero;stroke:none;stroke-width:0.1"
         id="path76" />
      <path
         d="m 308.89,399.99 c -2.239,2.365 -5.117,7.863 -8.365,14.687 -0.996,-0.539 -1.977,-1.107 -2.906,-1.752 -2.408,-1.673 -3.757,-3.847 -5.369,-6.178 4.319,-4.312 8.892,-8.475 13.976,-11.742 0.188,-0.121 0.244,-0.305 0.222,-0.48 3.781,-0.707 8.253,-0.673 2.442,5.465"
         style="fill:#ffffff;fill-opacity:1;fill-rule:nonzero;stroke:none;stroke-width:0.1"
         id="path78" />
      <path
         d="m 261.523,428.707 c 2.951,-3.856 6.76,-7.228 10.781,-9.924 3.7,-2.481 8.33,-5.287 12.829,-6.125 -4.753,5.074 -9.276,10.408 -13.271,16.09 -5.956,8.47 -10.62,17.835 -13.102,27.796 -2.39,-3.144 -3.965,-7.148 -4.618,-11.988 1.387,-5.727 3.84,-11.223 7.381,-15.849"
         style="fill:#ffffff;fill-opacity:1;fill-rule:nonzero;stroke:none;stroke-width:0.1"
         id="path80" />
      <path
         d="m 287.962,409.691 c -0.166,0.172 -0.335,0.344 -0.501,0.516 -0.411,0.425 -0.816,0.856 -1.223,1.284 l -0.015,-10e-4 c -4.94,0.556 -10,3.51 -14.09,6.206 -4.153,2.738 -8.049,6.135 -11.129,10.05 -3.239,4.118 -5.61,8.942 -7.137,14.019 -0.274,-4.698 0.247,-10.094 1.664,-16.191 2.622,-11.283 11.092,-19.005 21.006,-23.803 2.929,3.73 6.884,6.652 11.425,7.92"
         style="fill:#ffffff;fill-opacity:1;fill-rule:nonzero;stroke:none;stroke-width:0.1"
         id="path82" />
      <path
         d="m 291.507,406.092 c -0.927,0.922 -1.845,1.851 -2.751,2.782 -4.476,-1.113 -8.4,-3.914 -11.302,-7.533 2.792,-1.29 5.687,-2.334 8.586,-3.186 1.089,3.13 2.811,6.026 5.467,7.937"
         style="fill:#ffffff;fill-opacity:1;fill-rule:nonzero;stroke:none;stroke-width:0.1"
         id="path84" />
      <path
         d="m 294.972,402.737 c -0.929,0.868 -1.845,1.75 -2.749,2.641 -2.56,-1.767 -4.194,-4.526 -5.231,-7.511 2.295,-0.638 4.585,-1.135 6.827,-1.514 0.017,2.195 0.328,4.384 1.153,6.384"
         style="fill:#ffffff;fill-opacity:1;fill-rule:nonzero;stroke:none;stroke-width:0.1"
         id="path86" />
      <path
         d="m 295.769,402.004 c -0.677,-1.839 -0.951,-3.824 -0.96,-5.814 2.727,-0.42 5.372,-0.655 7.841,-0.712 0,0 0.783,-0.251 1.885,-0.528 -3.089,2.099 -5.989,4.506 -8.766,7.054"
         style="fill:#ffffff;fill-opacity:1;fill-rule:nonzero;stroke:none;stroke-width:0.1"
         id="path88" />
      <path
         d="m 341.848,452.225 c -0.785,4.056 -2.112,7.493 -6.591,8.42 -3.929,0.815 -7.659,-1.204 -10.122,-4.161 -3.161,-3.796 -4.055,-8.934 -4.711,-13.678 -0.955,-6.906 -1.338,-14.217 -0.127,-21.111 0.166,-0.947 1.669,-0.71 1.657,0.225 -0.11,8.371 -0.576,16.526 1.04,24.829 0.748,3.847 2.009,7.782 5.146,10.355 5.427,4.453 11.267,1.3 12.586,-5.189 0.149,-0.735 1.264,-0.422 1.122,0.31"
         style="fill:#14191c;fill-opacity:1;fill-rule:nonzero;stroke:none;stroke-width:0.1"
         id="path90" />
      <path
         d="m 369.461,449.617 c -0.785,4.056 -2.112,7.493 -6.591,8.421 -3.929,0.813 -7.659,-1.204 -10.122,-4.161 -3.161,-3.797 -4.054,-8.936 -4.711,-13.678 -0.955,-6.906 -1.337,-14.218 -0.126,-21.111 0.166,-0.949 1.668,-0.711 1.657,0.223 -0.111,8.373 -0.576,16.527 1.039,24.83 0.748,3.848 2.01,7.782 5.146,10.356 5.427,4.453 11.267,1.299 12.586,-5.19 0.15,-0.735 1.264,-0.423 1.122,0.31"
         style="fill:#14191c;fill-opacity:1;fill-rule:nonzero;stroke:none;stroke-width:0.1"
         id="path92" />
      <path
         d="m 358.242,388.463 c 1.434,0.249 9.899,-13.641 7.804,-21.488 -2.093,-7.845 -7.592,-6.575 -6.99,-0.327 0.602,6.249 3.003,7.684 -0.61,15.961 -1.571,3.597 -1.793,5.578 -0.204,5.854"
         style="fill:#151d21;fill-opacity:1;fill-rule:nonzero;stroke:none;stroke-width:0.1"
         id="path124" />
      <path
         d="m 318.544,362.469 c -1.185,-0.171 0.596,-5.661 -0.994,-7.902 -1.591,-2.24 -4.473,-4.428 -3.239,-6.05 1.681,-2.21 4.901,1.965 5.525,7.556 0.502,4.505 0.1,6.596 -1.292,6.396"
         style="fill:#151d21;fill-opacity:1;fill-rule:nonzero;stroke:none;stroke-width:0.1"
         id="path126" />
      <path
         d="m 329.875,363.729 c -1.184,-0.171 0.597,-5.66 -0.994,-7.9 -1.591,-2.24 -4.473,-4.428 -3.239,-6.05 1.681,-2.211 4.902,1.965 5.525,7.556 0.503,4.504 0.1,6.595 -1.292,6.394"
         style="fill:#151d21;fill-opacity:1;fill-rule:nonzero;stroke:none;stroke-width:0.1"
         id="path128" />
      <path
         d="m 286.53,362.758 c -4.768,7.427 -2.483,19.762 11.036,30.07 13.518,10.308 10.074,37.436 39.074,40.341 29,2.904 40.239,-9.676 37.667,-26.929 -2.573,-17.253 -17.64,-39.555 -33.419,-46.005 -15.877,-6.489 -44.635,-12.627 -54.358,2.523"
         style="fill:#f79524;fill-opacity:1;fill-rule:nonzero;stroke:none;stroke-width:0.1"
         id="path130" />
      <g
         id="g132"
         transform="scale(0.1)">
        <g
           id="g134"
           clip-path="url(#clipPath138)">
          <path
             d="m 2861.55,3554.62 c 15.95,-75.01 111.76,-85.95 175.19,-83.17 93.06,4.08 189.95,20.52 276.25,55.78 47.97,19.6 96.1,41.21 137.29,72.84 44.02,33.79 75.35,74.55 108.64,118.5 29.43,38.87 61.98,72.85 106.99,93.42 45,20.56 94.22,20.15 141.18,32.72 66.87,17.91 56.56,103.61 0,125.66 -83.74,32.66 -191.67,-7.09 -261.65,-57.07 -81.44,-58.17 -129.01,-148.61 -198.65,-219 -33.84,-34.2 -66.56,-65.54 -111.19,-85.73 -39.75,-17.97 -86.07,-24.4 -128.72,-32.24 -73.33,-13.49 -146.97,-19.6 -218.23,5.39 -16.88,5.91 -30.35,-11.88 -27.1,-27.1"
             style="fill:#dd851b;fill-opacity:1;fill-rule:nonzero;stroke:none"
             id="path140" />
          <path
             d="m 3531.23,3635.92 c 70.12,54.8 161.01,100.65 214.46,172.39 33.54,45.03 -22.48,115.86 -74.23,96.55 -88.75,-33.09 -157.77,-121.07 -217.78,-191.39 -46.73,-54.73 22.55,-120.54 77.55,-77.55"
             style="fill:#dd851b;fill-opacity:1;fill-rule:nonzero;stroke:none"
             id="path142" />
          <path
             d="m 3169.75,3584.58 c -91.75,7.33 -157.75,71.09 -199.86,148.83 -39.93,73.67 -41.94,141.86 -36.19,222.9 0.81,11.26 -14.5,11.25 -18.1,2.45 -62.38,-152.03 83.34,-399.75 254.15,-389.89 10.17,0.59 10.05,14.9 0,15.71"
             style="fill:#dd851b;fill-opacity:1;fill-rule:nonzero;stroke:none"
             id="path144" />
          <path
             d="m 3428.09,3746.92 c -92.15,24.34 -193,22.71 -266.71,94.77 -70.05,68.47 -87.29,170.19 -110.6,260.45 -2.89,11.15 -20.07,8.82 -20.03,-2.71 0.33,-93.62 47.62,-217.05 118.04,-280.98 64.68,-58.72 192.65,-102.86 279.3,-85.54 7.19,1.43 6.66,12.25 0,14.01"
             style="fill:#dd851b;fill-opacity:1;fill-rule:nonzero;stroke:none"
             id="path146" />
          <path
             d="m 2957.05,3601.24 c 5.69,-10.34 10.88,-20.17 13.23,-31.86 2.13,-10.59 -1.14,-22.34 2.63,-32.32 1.98,-5.23 9.17,-8.56 13.52,-3.57 17.68,20.31 1.19,62.18 -15.51,78.44 -7.22,7.03 -18.71,-1.87 -13.87,-10.69"
             style="fill:#dd851b;fill-opacity:1;fill-rule:nonzero;stroke:none"
             id="path148" />
          <path
             d="m 3309.78,3732.77 c 17.58,-2.31 36.83,-22.65 50.81,-32.48 16.16,-11.37 32.25,-24.02 49.75,-33.22 10.38,-5.46 22.95,8.66 13.15,17.06 -18.74,16.05 -40.82,28.79 -61.5,42.21 -16.37,10.62 -31.93,22.89 -52.21,22.52 -10.67,-0.18 -9.96,-14.78 0,-16.09"
             style="fill:#dd851b;fill-opacity:1;fill-rule:nonzero;stroke:none"
             id="path150" />
          <path
             d="m 3353.91,3718.43 c 7.08,-2.9 14.16,-5.78 21.25,-8.67 6.61,-2.69 13.85,-7.24 21.12,-6.3 7.45,0.97 11.35,8.7 6.11,14.74 -5.07,5.83 -13.56,7.29 -20.65,9.76 -7.66,2.67 -15.33,5.35 -23,8.02 -11.26,3.93 -15.42,-13.24 -4.83,-17.55"
             style="fill:#dd851b;fill-opacity:1;fill-rule:nonzero;stroke:none"
             id="path152" />
          <path
             d="m 3094.73,3588.48 c 7.19,0 7.21,11.18 0,11.18 -7.19,0 -7.2,-11.18 0,-11.18"
             style="fill:#dd851b;fill-opacity:1;fill-rule:nonzero;stroke:none"
             id="path154" />
          <path
             d="m 3074.23,3609.03 c 0.91,-14.45 1.74,-28.94 2.05,-43.43 0.31,-14.41 -2.31,-28.32 -2.9,-42.62 -0.35,-8.32 11.15,-10.8 15.22,-4.12 15.69,25.83 4.74,62.32 1.02,90.17 -1.28,9.48 -16.03,10.14 -15.39,0"
             style="fill:#dd851b;fill-opacity:1;fill-rule:nonzero;stroke:none"
             id="path156" />
          <path
             d="m 3611.41,3794.33 c 10.59,-0.7 21.15,-1.6 31.7,-2.79 10.34,-1.18 21.14,-3.91 31.55,-3.2 9.75,0.65 11.46,13.5 2.28,16.8 -19.52,7 -45,5.45 -65.53,5.91 -10.84,0.25 -10.64,-16.01 0,-16.72"
             style="fill:#151d21;fill-opacity:1;fill-rule:nonzero;stroke:none"
             id="path158" />
          <path
             d="m 3608.07,3789.05 c 10.48,-0.58 20.96,-1.16 31.43,-1.74 9.67,-0.53 19.49,-2.01 29.02,-0.03 7.93,1.65 7.01,13 0,15.15 -9.2,2.82 -19.44,2.09 -29.02,2.43 -10.47,0.38 -20.95,0.76 -31.43,1.14 -10.94,0.39 -10.84,-16.35 0,-16.95"
             style="fill:#151d21;fill-opacity:1;fill-rule:nonzero;stroke:none"
             id="path160" />
          <path
             d="m 3604.3,3790.02 c 9.82,-1.79 19.65,-3.58 29.47,-5.36 8.77,-1.61 16.13,-4.27 24.5,-0.58 4.15,1.83 4.57,8.38 1.44,11.22 -6.49,5.91 -14.65,5.59 -23.08,6.77 -9.3,1.31 -18.62,2.62 -27.93,3.92 -10.29,1.45 -15.04,-14.03 -4.4,-15.97"
             style="fill:#151d21;fill-opacity:1;fill-rule:nonzero;stroke:none"
             id="path162" />
          <path
             d="m 3598.11,3786.61 c 17.46,-2.27 35.7,-6.32 53.33,-6.16 9.81,0.09 12.6,15.58 2.38,17.65 -18.03,3.65 -37.37,3.24 -55.71,4.37 -10.41,0.64 -9.82,-14.59 0,-15.86"
             style="fill:#151d21;fill-opacity:1;fill-rule:nonzero;stroke:none"
             id="path164" />
          <path
             d="m 3589.73,3786.33 c 17.75,-1.46 35.56,-3.5 53.35,-4.33 11.65,-0.55 11.53,17.32 0,18.05 -17.72,1.1 -35.6,1.01 -53.35,1.51 -9.91,0.27 -9.65,-14.44 0,-15.23"
             style="fill:#151d21;fill-opacity:1;fill-rule:nonzero;stroke:none"
             id="path166" />
          <path
             d="m 3603.07,3781.45 c 12.73,-0.36 25.59,-1.23 38.33,-0.93 11.01,0.24 11.03,16.85 0,17.1 -12.74,0.29 -25.59,-0.58 -38.33,-0.93 -9.8,-0.29 -9.82,-14.96 0,-15.24"
             style="fill:#151d21;fill-opacity:1;fill-rule:nonzero;stroke:none"
             id="path168" />
          <path
             d="m 3603.07,3778.27 c 12.72,-0.43 25.6,-1.44 38.33,-1.09 11.01,0.3 11.03,16.81 0,17.1 -12.73,0.36 -25.61,-0.65 -38.33,-1.09 -9.6,-0.32 -9.62,-14.59 0,-14.92"
             style="fill:#151d21;fill-opacity:1;fill-rule:nonzero;stroke:none"
             id="path170" />
          <path
             d="m 3613.35,3780.33 c 6.01,1.09 12.02,2.2 18.03,3.29 5.71,1.04 11.85,1.37 16.76,4.64 4.43,2.95 4.48,11.17 -1.61,12.35 -6.19,1.2 -11.88,-0.59 -17.95,-1.92 -6.38,-1.4 -12.76,-2.79 -19.13,-4.19 -9.31,-2.04 -5.3,-15.84 3.9,-14.17"
             style="fill:#151d21;fill-opacity:1;fill-rule:nonzero;stroke:none"
             id="path172" />
          <path
             d="m 3629.75,3813.83 c 7.19,0.5 14.37,1.01 21.56,1.52 6.72,0.47 13.41,-0.33 18.39,4.8 3.38,3.48 2.19,8.29 -1.41,10.92 -5.41,3.98 -12.06,1.99 -18.33,1.42 -6.73,-0.63 -13.47,-1.24 -20.21,-1.87 -10.63,-0.97 -10.87,-17.56 0,-16.79"
             style="fill:#151d21;fill-opacity:1;fill-rule:nonzero;stroke:none"
             id="path174" />
          <path
             d="m 3633.06,3833.44 c 6.58,-0.37 13.16,-0.74 19.74,-1.12 6.3,-0.35 13.06,-1.73 19.06,0.46 5.85,2.14 8.74,11.5 1.92,14.71 -6.29,2.97 -12.71,2.51 -19.57,2.74 -7.05,0.24 -14.1,0.47 -21.15,0.71 -11.31,0.39 -11.19,-16.87 0,-17.5"
             style="fill:#151d21;fill-opacity:1;fill-rule:nonzero;stroke:none"
             id="path176" />
          <path
             d="m 3644.73,3847.06 c 6.15,-0.02 12.31,-0.04 18.47,-0.06 6.24,-0.02 11.66,-0.75 16.53,3.73 2.73,2.51 2.73,7.49 0,10 -4.87,4.48 -10.29,3.75 -16.53,3.73 -6.16,-0.02 -12.32,-0.04 -18.47,-0.06 -11.15,-0.03 -11.17,-17.3 0,-17.34"
             style="fill:#151d21;fill-opacity:1;fill-rule:nonzero;stroke:none"
             id="path178" />
          <path
             d="m 3663.07,3855.79 c 8.01,-0.07 18.64,-2.35 25.02,3.25 2.76,2.41 2.75,7.64 0,10.05 -6.35,5.58 -17.03,3.32 -25.02,3.26 -10.66,-0.09 -10.67,-16.47 0,-16.56"
             style="fill:#151d21;fill-opacity:1;fill-rule:nonzero;stroke:none"
             id="path180" />
          <path
             d="m 3663.07,3854.11 c 12.81,0 12.83,19.92 0,19.92 -12.82,0 -12.84,-19.92 0,-19.92"
             style="fill:#151d21;fill-opacity:1;fill-rule:nonzero;stroke:none"
             id="path182" />
          <path
             d="m 3671.83,3859.29 c 4.69,2.69 10,1.49 14.54,4.09 3.48,1.97 4.54,7.52 1.33,10.3 -6.55,5.68 -16.7,2.56 -23.52,-1.3 -8.48,-4.8 -0.84,-17.96 7.65,-13.09"
             style="fill:#151d21;fill-opacity:1;fill-rule:nonzero;stroke:none"
             id="path184" />
          <path
             d="m 3679.73,3867.16 c 8.9,0 8.92,13.82 0,13.82 -8.9,0 -8.91,-13.82 0,-13.82"
             style="fill:#151d21;fill-opacity:1;fill-rule:nonzero;stroke:none"
             id="path186" />
          <path
             d="m 3681.61,3868.87 c 2.98,1.1 5.48,1.84 7.58,4.32 2.96,3.52 2.25,9.66 -2.86,10.84 -3.31,0.77 -5.55,0.27 -8.72,-0.69 -9.29,-2.82 -5.02,-17.76 4,-14.47"
             style="fill:#151d21;fill-opacity:1;fill-rule:nonzero;stroke:none"
             id="path188" />
          <path
             d="m 3686.75,3874.42 1.21,0.78 c 4.14,2.64 4.14,8.42 0,11.07 l -1.21,0.77 c -4.72,3.03 -10.98,-0.94 -10.98,-6.31 0,-5.36 6.26,-9.33 10.98,-6.31"
             style="fill:#151d21;fill-opacity:1;fill-rule:nonzero;stroke:none"
             id="path190" />
          <path
             d="m 3377.1,3584.76 c -0.99,0.77 -1.97,1.54 -2.99,2.26 -4.32,3.04 -10.37,-3.01 -7.33,-7.33 0.72,-1.02 1.49,-2 2.26,-2.99 4.53,-5.84 13.9,3.53 8.06,8.06"
             style="fill:#151d21;fill-opacity:1;fill-rule:nonzero;stroke:none"
             id="path192" />
          <path
             d="m 3336.29,3583.02 c 16.51,-4.04 31.73,-9.07 47.26,-16.03 2.3,5.48 4.62,10.95 6.92,16.43 -20.96,4.11 -41.78,8.67 -62.51,13.84 -1.64,-5.93 -3.27,-11.87 -4.91,-17.81 14.14,-2.72 26.6,-6.84 39.62,-13.18 2.52,5.96 5.03,11.92 7.54,17.88 -17.18,4.75 -34.46,8.11 -52.11,10.61 -12.84,1.82 -17.49,-14.5 -5.35,-19.42 9.34,-3.8 18.68,-6.92 28.44,-9.51 1.79,6.5 3.58,13.02 5.38,19.52 -3.67,1.28 -7.33,2.56 -10.99,3.84 -1.71,-6.29 -3.41,-12.59 -5.12,-18.88 14.73,0.24 29.47,0.49 44.19,0.74 9.37,0.16 14.79,14.57 5.14,18.95 -9.87,4.47 -19.75,8.95 -29.62,13.43 -1.71,-6.34 -3.43,-12.68 -5.15,-19.01 22.89,-2.22 45.77,-4.46 68.65,-6.82 11.55,-1.21 12.44,14.03 5.27,19.44 -8.78,6.64 -17.66,11.33 -27.74,15.51 -0.93,-6.99 -1.88,-13.96 -2.83,-20.94 7.93,-0.63 15.87,-1.2 23.8,-1.78 9.86,-0.72 13.33,11.9 7.58,18.28 -3.09,3.43 -6.17,6.86 -9.26,10.3 -2.53,-6.11 -5.06,-12.2 -7.58,-18.3 8.99,-0.83 17.76,-1.27 26.78,-1.36 8.89,-0.09 12.36,9.01 9.27,16.15 -1.01,2.29 -2,4.6 -3,6.89 -3.09,-5.38 -6.18,-10.77 -9.27,-16.15 5.96,1.17 11.97,1.55 18.03,1.13 13.6,-0.04 13.43,20.28 0,21.01 -6.05,0.89 -12.06,0.66 -18.03,-0.66 -8.54,-1.12 -12.75,-8.16 -9.26,-16.16 0.99,-2.3 1.99,-4.6 2.99,-6.9 3.09,5.39 6.18,10.77 9.27,16.15 -9.02,0.08 -17.79,0.52 -26.78,1.33 -9.9,0.9 -13.27,-11.99 -7.57,-18.3 3.08,-3.42 6.17,-6.85 9.26,-10.27 2.52,6.09 5.05,12.18 7.57,18.28 -7.93,0.57 -15.86,1.15 -23.8,1.68 -12.92,0.86 -13.15,-16.84 -2.83,-20.94 8.77,-3.49 15.4,-7.5 22.86,-12.97 1.76,6.49 3.52,12.96 5.27,19.44 -22.89,2.04 -45.77,4.18 -68.65,6.35 -9.84,0.94 -14.23,-14.9 -5.14,-19 9.88,-4.45 19.76,-8.92 29.64,-13.37 1.71,6.32 3.42,12.64 5.13,18.95 -14.72,-0.27 -29.46,-0.54 -44.19,-0.82 -9.68,-0.18 -14.27,-14.04 -5.11,-18.88 7.01,-3.7 8.08,-4.23 15.84,-5.86 12.65,-2.65 18.08,16.18 5.38,19.52 -9.76,2.56 -19.11,5.64 -28.47,9.41 -1.79,-6.47 -3.57,-12.95 -5.35,-19.42 17.64,-2.44 34.94,-5.93 52.26,-10.06 10.26,-2.44 18.07,13.14 7.54,17.88 -14.54,6.56 -28.85,11.15 -44.59,14.1 -11.52,2.16 -16.6,-14.96 -4.91,-17.81 20.77,-5.06 41.61,-9.56 62.65,-13.36 9.18,-1.66 16.97,12.09 6.92,16.42 -17.62,7.59 -35.36,12.38 -54.42,14.55 -8.07,0.92 -9.61,-12.15 -1.91,-14.04"
             style="fill:#151d21;fill-opacity:1;fill-rule:nonzero;stroke:none"
             id="path194" />
          <path
             d="m 2898.32,3589.23 c -22.98,47.25 -33.84,99.97 -32.37,152.46 1.48,52.77 25.52,98.6 43.61,147.1 5.5,14.71 -17.55,23.88 -25.05,10.56 -57.49,-102.15 -64.16,-218.88 -6.69,-322.11 7.51,-13.49 27.13,-1.62 20.5,11.99"
             style="fill:#f8a435;fill-opacity:1;fill-rule:nonzero;stroke:none"
             id="path196" />
          <path
             d="m 3013.88,4010.61 c -4.52,-19.75 -10.65,-39.08 -19.92,-57.17 -8.73,-17.06 -21.69,-30.98 -31.01,-47.49 -5.22,-9.24 5.97,-22.8 15.66,-15.65 33.62,24.81 52.43,73.95 58.47,113.91 2.26,14.91 -19.66,21.83 -23.2,6.4"
             style="fill:#f8a435;fill-opacity:1;fill-rule:nonzero;stroke:none"
             id="path198" />
          <path
             d="m 3110.56,4107.7 c 61.83,114.73 148.2,188.97 276.82,218.6 134.99,31.09 271.16,2.21 405.17,-18.59 20.26,-3.14 29.53,27.1 8.66,31.42 -141.54,29.26 -295.51,53.08 -437.58,14.74 -128.64,-34.71 -218.01,-114.38 -273.7,-234.1 -6.39,-13.73 13.23,-25.82 20.63,-12.07"
             style="fill:#f8a435;fill-opacity:1;fill-rule:nonzero;stroke:none"
             id="path200" />
        </g>
      </g>
      <path
         d="m 334.064,386.724 c -13.775,3.421 -20.6,13.768 -22.545,29.456 -2.199,-4.091 -3.924,-8.415 -5.872,-12.391 2.731,-14.488 10.851,-24.068 23.989,-27.331 11.149,-2.769 23.249,-1.978 31.911,1.353 2.672,3.593 5.058,7.458 7.036,11.393 -8.718,-4.257 -22.203,-5.539 -34.519,-2.48"
         style="fill:#151d21;fill-opacity:1;fill-rule:nonzero;stroke:none;stroke-width:0.1"
         id="path202" />
      <g
         id="g204"
         transform="scale(0.1)">
        <g
           id="g206"
           clip-path="url(#clipPath210)">
          <path
             d="m 3685.21,3843.81 c -117.45,-49.56 -247.18,-77.58 -372.86,-42.78 -61.41,17 -117.48,47.08 -156.76,98.07 -41.34,53.67 -83.01,122.6 -70.71,192.76 5.5,31.47 -42.67,44.98 -48.22,13.3 -24,-137.03 86.41,-281.34 207.71,-333.08 147.17,-62.77 310.99,-36.88 454.13,23.51 29.19,12.33 16.36,60.74 -13.29,48.22"
             style="fill:#151518;fill-opacity:1;fill-rule:nonzero;stroke:none"
             id="path212" />
        </g>
      </g>
      <path
         d="m 312.095,370.047 c -6.971,4.131 -12.206,13.108 -11.815,25.317 -0.829,-0.922 -1.722,-1.779 -2.714,-2.536 -1.984,-1.512 -3.719,-3.068 -5.233,-4.647 -0.066,-12.341 6.647,-22.542 13.833,-26.385 6.636,-3.548 16.74,-5.344 26.428,-4.506 2.999,0.92 5.805,1.929 8.294,2.945 3.464,1.416 6.893,3.596 10.162,6.317 -11.793,-6.526 -32.798,-0.154 -38.955,3.495"
         style="fill:#151d21;fill-opacity:1;fill-rule:nonzero;stroke:none;stroke-width:0.1"
         id="path214" />
      <g
         id="g216"
         transform="scale(0.1)">
        <g
           id="g218"
           clip-path="url(#clipPath222)">
          <path
             d="m 2903.67,3951.59 c -7.37,-79.85 3.85,-168.85 46.32,-238.6 37.46,-61.53 104.43,-102.8 169.91,-128.67 78.93,-31.18 164.94,-40.38 249.27,-36.68 72.16,3.18 159.5,5.54 217.65,53.37 24.86,20.46 -10.68,55.66 -35.36,35.36 -49.27,-40.53 -140.06,-38.02 -200.58,-39.34 -68.44,-1.49 -137.09,6.33 -201.78,29.49 -63.86,22.87 -131.15,62.75 -163.11,124.77 -31.54,61.17 -38.55,132.77 -32.32,200.3 2.94,32.03 -47.07,31.83 -50,0"
             style="fill:#151518;fill-opacity:1;fill-rule:nonzero;stroke:none"
             id="path224" />
        </g>
      </g>
      <path
         d="m 295.515,362.117 c -1.49,-0.215 0.75,-7.117 -1.25,-9.935 -2,-2.817 -5.625,-5.567 -4.073,-7.607 2.114,-2.779 6.164,2.471 6.948,9.501 0.632,5.664 0.125,8.294 -1.625,8.041"
         style="fill:#151d21;fill-opacity:1;fill-rule:nonzero;stroke:none;stroke-width:0.1"
         id="path226" />
      <path
         d="m 309.764,363.704 c -1.49,-0.215 0.75,-7.117 -1.25,-9.936 -2,-2.817 -5.625,-5.567 -4.073,-7.607 2.113,-2.779 6.164,2.472 6.948,9.501 0.632,5.664 0.125,8.294 -1.625,8.042"
         style="fill:#151d21;fill-opacity:1;fill-rule:nonzero;stroke:none;stroke-width:0.1"
         id="path228" />
      <path
         d="m 329.04,374.406 c -0.806,-1.212 8.483,-14.564 16.506,-15.816 8.024,-1.253 9.081,4.29 3.122,6.262 -5.96,1.973 -8.242,0.356 -14.355,7.004 -2.656,2.889 -4.379,3.893 -5.273,2.55"
         style="fill:#151d21;fill-opacity:1;fill-rule:nonzero;stroke:none;stroke-width:0.1"
         id="path230" />
      <path
         d="m 334.312,408.434 c -2.881,0 -5.217,1.177 -5.217,2.629 0,1.45 2.336,2.627 5.217,2.627 2.882,0 5.218,-1.177 5.218,-2.627 0,-1.452 -2.336,-2.629 -5.218,-2.629"
         style="fill:#f25636;fill-opacity:1;fill-rule:nonzero;stroke:none;stroke-width:0.1"
         id="path234" />
      <path
         d="m 373.492,418.233 c -1.357,0 -2.402,0.416 -2.707,1.222 -0.287,0.761 0.162,1.698 1.071,2.557 0.696,-1.189 1.259,-2.452 1.693,-3.779 -0.019,0 -0.038,0 -0.057,0"
         style="fill:#f25636;fill-opacity:1;fill-rule:nonzero;stroke:none;stroke-width:0.1"
         id="path236" />
      <path
         d="m 348.346,411.816 c 6.723,-1.682 13.354,-1.627 18.675,3.325 0.545,0.508 -0.151,1.363 -0.781,1.012 -2.917,-1.619 -5.229,-3.496 -8.714,-3.814 -2.923,-0.265 -5.987,0.127 -8.835,0.727 -0.812,0.172 -1.16,-1.046 -0.345,-1.25"
         style="fill:#14191c;fill-opacity:1;fill-rule:nonzero;stroke:none;stroke-width:0.1"
         id="path238" />
      <path
         d="m 334.808,419.572 c 1.039,0.896 2.347,1.378 3.714,1.474 1.174,0.083 2.172,-0.403 3.305,-0.476 0.622,-0.04 0.928,0.802 0.502,1.214 -2.299,2.225 -6.538,0.641 -8.483,-1.251 -0.635,-0.617 0.306,-1.525 0.962,-0.961"
         style="fill:#14191c;fill-opacity:1;fill-rule:nonzero;stroke:none;stroke-width:0.1"
         id="path240" />
      <path
         d="m 367.834,424.535 c -1.183,1.082 -2.584,1.847 -4.194,2.028 -1.397,0.155 -3.29,0.053 -4.323,-1.011 -0.396,-0.407 -0.139,-1.276 0.503,-1.213 1.127,0.109 2.113,0.622 3.284,0.578 1.368,-0.052 2.7,-0.479 3.769,-1.343 0.666,-0.539 1.62,0.36 0.961,0.961"
         style="fill:#14191c;fill-opacity:1;fill-rule:nonzero;stroke:none;stroke-width:0.1"
         id="path242" />
    </g>
  </g>
</svg>
