<?xml version="1.0" encoding="UTF-8" standalone="no"?>
<!-- Created with Inkscape (http://www.inkscape.org/) -->

<svg
   version="1.1"
   id="svg18"
   width="600.61127"
   height="335.38867"
   viewBox="0 0 600.61126 335.38867"
   xmlns="http://www.w3.org/2000/svg"
   xmlns:svg="http://www.w3.org/2000/svg">
  <defs
     id="defs22" />
  <g
     id="g26"
     transform="matrix(1.3333333,0,0,-1.3333333,-1015.8016,1061.5066)">
    <path
       id="path146"
       style="fill:#512c97;fill-opacity:1;fill-rule:nonzero;stroke:white;stroke-width:1"
       d="M 987.9396 796.12997 C 974.12662 796.12997 961.29066 789.25961 953.60367 777.76962 C 952.11667 775.53962 952.71414 772.54038 954.93814 771.05038 C 957.16214 769.56038 960.17084 770.16046 961.65884 772.38046 C 967.54484 781.18045 977.36961 786.44003 987.9396 786.44003 C 1005.3606 786.44003 1019.5304 772.27065 1019.5304 754.85067 C 1019.5304 737.43069 1005.3606 723.25985 987.9396 723.25985 L 987.07974 723.25985 C 984.40374 723.25985 982.2355 721.09 982.2355 718.42001 L 982.2355 693.82967 L 966.98355 693.82967 C 964.03555 693.82967 961.49974 691.74067 960.93374 688.85067 L 958.99136 678.91024 C 956.24036 664.83025 946.15124 653.31031 932.55825 648.74032 C 906.51528 639.96033 879.09942 630.50983 870.11343 626.73983 C 851.48745 618.89984 782.07743 582.89067 766.65444 569.37069 C 766.47944 569.21069 766.27266 569.02067 766.10366 568.85067 C 759.48967 562.40067 760.57146 551.02953 769.48745 546.18953 C 774.83644 543.27954 781.50029 544.45932 785.84829 548.71932 L 785.88784 548.76033 C 799.40883 561.96032 813.93626 574.17982 829.60024 584.96981 C 845.24323 595.7798 861.84398 605.3496 879.11196 613.74959 C 896.38795 622.12959 914.29159 629.41023 932.62857 635.64022 C 932.80757 635.70022 932.9857 635.7604 933.1647 635.8204 C 968.15966 647.54038 1006.1103 647.54038 1041.1002 635.8204 L 1041.6393 635.64022 C 1059.9693 629.41023 1077.8801 622.12959 1095.1501 613.74959 C 1112.42 605.3496 1129.0206 595.7798 1144.6706 584.96981 C 1160.3305 574.17982 1174.8601 561.96032 1188.38 548.76033 L 1188.5002 548.64022 C 1188.6702 548.48022 1188.8402 548.31975 1189.0202 548.15975 C 1194.9302 542.97975 1203.9607 543.63071 1209.0607 549.64071 C 1214.1007 555.5707 1213.1102 564.55977 1207.2502 569.67977 C 1191.9302 583.07976 1122.78 618.89984 1104.1501 626.73983 C 1094.8901 630.62983 1066.07 640.55013 1039.36 649.54012 C 1026.72 653.79012 1017.0395 664.07029 1013.5495 676.95028 L 1010.2199 689.27987 C 1009.4899 691.96987 1007.0497 693.82967 1004.2697 693.82967 L 991.92544 693.82967 L 991.92544 713.77059 C 1012.8194 715.78059 1029.2204 733.43069 1029.2204 754.85067 C 1029.2204 777.61065 1010.7006 796.12997 987.9396 796.12997 z " />
  </g>
</svg>
